<?xml version="1.0" encoding="utf-8"?>
<!-- Generator: Adobe Illustrator 16.0.0, SVG Export Plug-In . SVG Version: 6.00 Build 0)  -->
<!DOCTYPE svg PUBLIC "-//W3C//DTD SVG 1.1//EN" "http://www.w3.org/Graphics/SVG/1.1/DTD/svg11.dtd">
<svg version="1.1" id="Layer_1" xmlns="http://www.w3.org/2000/svg" xmlns:xlink="http://www.w3.org/1999/xlink" x="0px" y="0px"
	 width="280px" height="243px" viewBox="0 0 280 243" enable-background="new 0 0 280 243" xml:space="preserve">
<g>
	<g>
		<path fill-rule="evenodd" clip-rule="evenodd" fill="#E6E6E8" d="M212.583,67.805c-2.442-1.029-5.309-4.763-8.222-2.871
			c0.107-1.292,0.153-2.53-0.352-3.738c-0.162-0.188-0.322-0.381-0.469-0.582c-0.118-0.097-0.249-0.171-0.381-0.236l-0.122-0.118
			c-1.654-0.647-3.442-0.434-5.141-0.933c-0.693-0.341-1.241-0.727-1.871-1.167c-0.194,1.098-0.479,2.073-0.39,3.198
			c0.051,0.145,0.103,0.307,0.151,0.464c0.099,0.079,0.173,0.184,0.201,0.307c0.425,0.332,0.788,0.718,1.245,1.011
			c0.722,0.311,1.485,0.39,2.263,0.547c0.136,0.092,0.275,0.167,0.422,0.236c0.06,0.065,0.121,0.109,0.202,0.149
			c0.034,0.078,0.094,0.145,0.152,0.196c0.026,0.083,0.047,0.158,0.086,0.236v0.118l0.026,0.079v0.114l-0.026,0.118v0.113
			l-0.048,0.118l-0.077,0.079l-0.044,0.118c-0.052,0.061-0.115,0.113-0.19,0.153l-0.081,0.113c-0.074,0.053-0.157,0.105-0.223,0.162
			l-0.171,0.035l-0.109,0.074c-1.801,0.328-3.961-0.131-5.534-1.085c-0.164,2-0.134,3.947-0.042,5.952
			c1.353-0.481,5.837-2.64,6.52-0.04c0,0.079,0,0.153,0,0.236c-0.068,0.127-0.116,0.254-0.169,0.39
			c-0.069,0.088-0.157,0.184-0.226,0.268l-0.12,0.039l-0.083,0.079c-1.315,0.617-3.296,0.013-4.322,1.247l-0.034,0.079l-0.081,0.074
			c-0.565,1.309-0.118,2.744,0.273,4.053c0.558-0.604,1.256-0.941,1.986-1.252c1.677-0.302,3.471,0.07,5.102-0.429
			c0.28-0.123,0.554-0.271,0.779-0.464c0.076-0.118,0.17-0.219,0.271-0.315l0.042-0.07l0.12-0.118
			c0.585-1.317,0.585-2.481,0.351-3.895C206.918,72.26,210.47,69.135,212.583,67.805z"/>
		<path fill-rule="evenodd" clip-rule="evenodd" fill="#E6E6E8" d="M80.516,64.622c0-0.083,0-0.157,0-0.231
			c0.061-0.127,0.114-0.263,0.162-0.398c0.072-0.088,0.156-0.175,0.23-0.267l0.12-0.04l0.075-0.078
			c1.319-0.613,3.307-0.009,4.333-1.248l0.03-0.069l0.085-0.084c0.564-1.304,0.116-2.744-0.276-4.047
			c-0.558,0.599-1.254,0.936-1.987,1.246c-1.683,0.298-3.471-0.065-5.103,0.425c-0.278,0.136-0.543,0.28-0.781,0.473
			c-0.077,0.113-0.167,0.214-0.27,0.311l-0.039,0.079l-0.118,0.113c-0.586,1.317-0.586,2.478-0.348,3.896
			c-2.663-1.619-6.224,1.515-8.34,2.836c2.436,1.037,5.305,4.771,8.213,2.876c-0.094,1.295-0.153,2.525,0.359,3.742
			c0.158,0.188,0.32,0.38,0.464,0.577c0.127,0.092,0.254,0.175,0.388,0.241l0.116,0.113c1.659,0.647,3.451,0.434,5.147,0.933
			c0.687,0.346,1.239,0.722,1.871,1.173c0.186-1.099,0.479-2.079,0.39-3.195c-0.055-0.153-0.105-0.311-0.155-0.464
			c-0.094-0.083-0.167-0.197-0.197-0.315c-0.429-0.328-0.794-0.709-1.251-1.011c-0.72-0.311-1.486-0.381-2.254-0.547
			c-0.131-0.083-0.28-0.162-0.431-0.232c-0.053-0.057-0.121-0.109-0.197-0.148c-0.031-0.079-0.09-0.14-0.151-0.197
			c-0.022-0.083-0.048-0.157-0.083-0.236v-0.118l-0.035-0.078v-0.114l0.035-0.122v-0.114l0.046-0.113l0.07-0.075l0.046-0.127
			c0.055-0.052,0.118-0.104,0.193-0.152l0.077-0.114c0.081-0.048,0.155-0.101,0.236-0.157l0.155-0.035l0.116-0.083
			c1.799-0.324,3.959,0.136,5.53,1.094c0.175-2,0.135-3.952,0.046-5.956C85.684,65.061,81.196,67.218,80.516,64.622z"/>
		<path fill-rule="evenodd" clip-rule="evenodd" fill="#E6E6E8" d="M149.415,164.524c-1.694-1.4-4.23-1.286-5.528,0.617
			c0.571,0.123,1.086,0.46,1.442,0.924c0.06,0.122,0.118,0.223,0.206,0.319c0.063,0.223,0.14,0.438,0.236,0.644
			c0.072,0.508,0.013,0.972-0.201,1.439c-0.105,0.123-0.217,0.236-0.324,0.359c-0.111,0.052-0.221,0.122-0.315,0.205
			c-0.136,0.026-0.249,0.07-0.365,0.114c-2.852-0.259-1.832-3.755-1.402-5.52h-5.683c0.434,1.515,0.666,2.994,0.201,4.525
			c-0.38,0.657-0.844,0.915-1.608,0.994c-0.275-0.039-0.553-0.157-0.796-0.319c-0.07-0.132-0.173-0.25-0.278-0.359
			c-0.444-1.261,0.254-3.116,1.676-3.4c-0.512-0.529-1.088-0.88-1.716-1.243c-0.774-0.249-1.412-0.249-2.201-0.197
			c-0.368,0.132-0.722,0.289-1.081,0.43c-2.639,2.009-1.466,5.785,0.597,7.654c1.508,1.365,3.256,2.446,4.703,3.896
			c1.307,1.313,2.396,2.827,3.274,4.464c1.203-1.938,2.536-3.506,4.144-5.103c1.64-1.642,3.97-2.53,5.222-4.578
			C150.666,168.674,151.198,166.008,149.415,164.524z"/>
		<path fill-rule="evenodd" clip-rule="evenodd" fill="#E6E6E8" d="M186.258,46.097H94.617c-0.976,0-1.915,0.39-2.613,1.079
			c-0.689,0.693-1.077,1.637-1.077,2.615v73.978c0,0.022,0.002,0.053,0.002,0.07c0.158,9.024,4.309,17.874,11.112,23.683
			c6.156,5.252,14.542,9.112,23.619,10.862c4.712,0.915,9.559,1.379,14.408,1.379c4.201,0,8.403-0.35,12.486-1.046
			c6.906-1.173,16.812-3.843,24.741-9.961c3.633-2.797,6.528-6.063,8.62-9.682c2.416-4.192,3.753-8.858,3.98-13.844l0.046-1.471
			c0-0.052,0-0.096,0-0.135V49.791C189.942,47.751,188.299,46.097,186.258,46.097z M188.025,122.574c0,0.062,0,0.127-0.002,0.188
			l-0.048,1.356c-0.215,4.885-1.525,9.428-3.871,13.528c-2.021,3.536-4.834,6.714-8.349,9.44c-7.624,5.904-17.115,8.486-23.734,9.62
			c-3.897,0.665-7.913,0.998-11.931,0.998c-4.634,0-9.265-0.446-13.76-1.322c-8.718-1.693-16.776-5.418-22.685-10.499
			c-6.602-5.659-10.635-14.299-10.792-23.101V52.507c0-1.146,0.461-2.265,1.269-3.075c0.803-0.815,1.93-1.279,3.066-1.279h86.5
			c2.394,0,4.337,1.951,4.337,4.354V122.574z"/>
		<path fill-rule="evenodd" clip-rule="evenodd" fill="#E6E6E8" d="M147.063,79.096l-0.755-1.295l-0.746,1.295l-0.696,1.208
			c-0.206,0.285-0.337,0.644-0.337,1.033c0,0.976,0.801,1.769,1.774,1.769c0.979,0,1.771-0.793,1.771-1.769
			c0-0.351-0.101-0.674-0.275-0.945h0.011L147.063,79.096z"/>
		<path fill-rule="evenodd" clip-rule="evenodd" fill="#E6E6E8" d="M143.497,84.668l-0.75,1.295l-0.691,1.208
			c-0.213,0.293-0.34,0.644-0.34,1.033c0,0.972,0.795,1.768,1.779,1.768c0.974,0,1.775-0.796,1.775-1.768
			c0-0.346-0.104-0.67-0.274-0.941h0.003l-0.751-1.3L143.497,84.668z"/>
		<path fill-rule="evenodd" clip-rule="evenodd" fill="#E6E6E8" d="M137.917,117.051h-5.733l-5.254,5.139l-1.331,4.573l0.74,0.215
			c0.33,0.101,0.61,0.45,0.61,0.792v0.179h8.694l-3.845-5.759v-3.472l0.764-0.748h2.972l-1.291,4.22l2.087,4.481l1.063,0.307
			c0.341,0.101,0.613,0.45,0.613,0.792v0.179h0.484c-0.09-0.201-0.151-0.406-0.151-0.643v-9.918
			C138.198,117.278,138.053,117.164,137.917,117.051z"/>
		<path fill-rule="evenodd" clip-rule="evenodd" fill="#E6E6E8" d="M150.17,127.948l-4.18-8.972h-2.957
			c-0.372,0-0.741-0.035-1.099-0.097v8.426c0,0.236-0.063,0.441-0.152,0.643h0.378l1.527-8.044h1.709l0.839,1.781l-2.386,5.112
			l0.619,0.18c0.342,0.101,0.62,0.45,0.62,0.792v0.179H150.17z"/>
		<path fill-rule="evenodd" clip-rule="evenodd" fill="#E6E6E8" d="M140.498,79.096l-0.744-1.295l-0.753,1.295l-0.689,1.208
			c-0.208,0.285-0.339,0.644-0.339,1.033c0,0.976,0.794,1.769,1.772,1.769c0.984,0,1.774-0.793,1.774-1.769
			c0-0.351-0.104-0.674-0.273-0.945h0.006L140.498,79.096z"/>
		<path fill-rule="evenodd" clip-rule="evenodd" fill="#E6E6E8" d="M136.793,84.668l-0.755,1.295l-0.698,1.208
			c-0.208,0.293-0.331,0.644-0.331,1.033c0,0.972,0.79,1.768,1.779,1.768c0.974,0,1.764-0.796,1.764-1.768
			c0-0.346-0.099-0.67-0.269-0.941h0.006l-0.755-1.3L136.793,84.668z"/>
		<path fill-rule="evenodd" clip-rule="evenodd" fill="#E6E6E8" d="M133.193,83.105c0.98,0,1.773-0.793,1.773-1.769
			c0-0.351-0.101-0.674-0.27-0.945h0.002l-0.755-1.296l-0.744-1.295l-0.749,1.295l-0.702,1.208c-0.21,0.285-0.335,0.644-0.335,1.033
			C131.414,82.313,132.21,83.105,133.193,83.105z"/>
		<path fill-rule="evenodd" clip-rule="evenodd" fill="#E6E6E8" d="M150.964,85.963l-0.755-1.295l-0.744,1.295l-0.698,1.208
			c-0.212,0.293-0.334,0.644-0.334,1.033c0,0.972,0.796,1.768,1.776,1.768c0.979,0,1.769-0.796,1.769-1.768
			c0-0.346-0.105-0.67-0.268-0.941l0,0L150.964,85.963z"/>
		<path fill-rule="evenodd" clip-rule="evenodd" fill="#E6E6E8" d="M130.825,85.963l-0.752-1.295l-0.749,1.295l-0.696,1.208
			c-0.202,0.293-0.333,0.644-0.333,1.033c0,0.972,0.797,1.768,1.775,1.768c0.976,0,1.771-0.796,1.771-1.768
			c0-0.346-0.103-0.67-0.271-0.941h0.002L130.825,85.963z"/>
		<path fill-rule="evenodd" clip-rule="evenodd" fill="#E6E6E8" d="M183.688,49.853h-86.5c-0.694,0-1.375,0.277-1.858,0.774
			c-0.495,0.494-0.779,1.182-0.779,1.88l0.009,70.203c0.026,1.764,0.232,3.515,0.574,5.238h29.153l0.319-5.82l2.447-5.253v-1.925
			c0-1.261,0.442-2.412,1.182-3.318h-2.556h-2.958c-1.965,0-3.749-0.727-5.114-1.921h15.41h5.324v-7.366
			c-9.195-0.905-16.41-8.688-16.41-18.124c0-10.035,8.169-18.211,18.211-18.211c10.029,0,18.208,8.176,18.208,18.211
			c0,9.437-7.213,17.219-16.415,18.124v7.366h3.315h0.885l4.249-2.573l-0.265-0.434l-1.967,0.823l-0.112,0.021h-0.764l-0.729-2.596
			h6.373h0.071l0.102,0.009h0.063l0.059,0.014h0.048l0.049,0.009h0.041c0.254,0.039,0.508,0.118,0.742,0.228l0.063,0.035
			l0.772,0.363c0.785,0.358,1.317,1.041,1.523,1.815l2.628,1.226l-0.578,1.239c-0.304,0.647-1.07,1.173-1.73,1.173h-2.772h-0.738
			h-2.194v0.547l1.746,0.429l-3.236,6.938l1.545,7.703l1.032,0.298c0.331,0.101,0.606,0.45,0.606,0.792v0.179h33.068
			c0.231-1.273,0.385-2.568,0.444-3.899l0.05-1.392v-70.15C186.325,51.043,185.146,49.853,183.688,49.853z M145.655,57.584
			c0,0.787-0.644,1.432-1.438,1.432h-2.309v2.307c0,0.797-0.646,1.44-1.435,1.44h-0.541c-0.786,0-1.44-0.644-1.44-1.44v-2.307
			h-2.304c-0.792,0-1.436-0.645-1.436-1.432v-0.545c0-0.795,0.644-1.434,1.436-1.434h2.304v-2.313c0-0.796,0.654-1.436,1.44-1.436
			h0.541c0.79,0,1.435,0.64,1.435,1.436v2.313h2.309c0.794,0,1.438,0.639,1.438,1.434V57.584z"/>
		<path fill-rule="evenodd" clip-rule="evenodd" fill="#E6E6E8" d="M104.749,144.593c5.696,4.89,13.476,8.491,21.908,10.119
			c8.202,1.602,16.895,1.711,25.082,0.319c6.432-1.094,15.632-3.598,22.976-9.291c3.338-2.587,6.001-5.594,7.918-8.942
			c1.337-2.319,2.304-4.81,2.91-7.427H95.458C96.943,135.267,100.195,140.685,104.749,144.593z M145.495,133.013v10.811v1.554v6.639
			h-3.258v-6.39l2.321-0.639v-0.679h-2.822l-18.063-5.116L145.495,133.013z"/>
		<path fill-rule="evenodd" clip-rule="evenodd" fill="#E6E6E8" d="M98.02,41.342c0.571,0.762,1.464,1.208,2.418,1.208h0.002
			c10.817-0.021,22.502-0.03,35.722-0.03h41.803c0.88,0,1.718-0.39,2.291-1.06c0.153-0.173,14.805-17.266,17.942-20.396
			c0.396-0.396,0.67-0.889,0.804-1.425c0.076-0.279,0.126-0.568,0.126-0.859v-0.392c0-0.359-0.063-0.709-0.182-1.042l-0.021-0.048
			c-0.122-0.368-0.289-0.723-0.525-1.063c-0.111-0.176-0.245-0.324-0.383-0.469l-0.157-0.153c-0.184-0.186-0.403-0.348-0.644-0.477
			c-1.429-0.801-3.18-1.224-5.092-1.224c-1.698,0-3.454,0.344-4.946,0.961c-1.436,0.6-2.852,1.649-3.884,2.984
			c-0.762-0.279-1.571-0.438-2.398-0.438c-1.611,0-3.213,0.569-4.627,1.644c-0.269,0.206-0.521,0.425-0.746,0.654
			c-0.023-0.333-0.072-0.676-0.15-1.018c-0.044-0.217-0.123-0.431-0.215-0.633l-0.062-0.133c-0.133-0.317-0.352-0.804-0.75-1.298
			c-0.088-0.109-0.184-0.21-0.282-0.311c-0.659-0.615-1.315-0.959-1.823-1.19c-0.236-0.107-0.485-0.19-0.735-0.234
			c-0.385-0.063-0.903-0.14-1.479-0.14c-0.942,0-1.792,0.207-2.514,0.619c-0.095,0.039-0.195,0.09-0.291,0.14
			c-0.031,0.007-0.062,0.018-0.109,0.022c-0.118-0.09-0.239-0.185-0.368-0.289c-0.652-0.974-1.984-2.578-4.395-2.689
			c-0.046-0.005-0.094-0.005-0.14-0.005c-0.127,0-0.256,0.007-0.385,0.022c-1.638,0.216-3.077,1.145-3.95,2.563
			c-0.906,1.475-1.105,3.252-0.532,4.884c0.053,0.164,0.13,0.319,0.21,0.469c0.114,0.247,0.259,0.477,0.43,0.685
			c0.113,0.129,0.228,0.256,0.334,0.37c-0.501,0.857-1.446,1.444-2.6,1.536c-0.159,0.013-0.334,0.021-0.508,0.021
			c-1.531,0-3.096-0.512-3.796-1.24c-0.014-0.011-0.026-0.02-0.035-0.033c0.547-0.704,0.986-1.672,1.092-2.991
			c0.33-0.4,0.633-0.855,0.869-1.356c0.065-0.141,0.12-0.287,0.17-0.44c0.386-1.313,0.386-2.589,0-3.901
			c-0.072-0.224-0.161-0.442-0.277-0.648c-0.04-0.067-0.077-0.135-0.105-0.212c-0.129-0.28-0.291-0.534-0.492-0.772
			c-0.379-0.431-0.906-1.044-1.744-1.521c-0.12-0.079-0.247-0.155-0.379-0.228c-0.855-0.436-1.805-0.654-2.82-0.654
			c-0.109,0-0.219,0.006-0.319,0.006c-0.162-0.328-0.357-0.647-0.578-0.94c-1.315-1.792-3.619-2.858-6.162-2.858l0,0
			c-2.473,0-4.672,0.977-6.028,2.688c-0.25,0.313-0.468,0.644-0.652,0.993c-0.092,0-0.184-0.004-0.284-0.004
			c-1.068,0-2.149,0.271-3.204,0.797c-1.37,0.678-2.359,1.926-2.775,3.501c-0.466,1.73-0.17,3.689,0.779,5.112
			c0.057,0.092,0.12,0.177,0.192,0.258c0.002,0.059,0.016,0.116,0.026,0.171c0.004,0.254,0.044,0.512,0.114,0.755
			c0.009,0.028,0.009,0.037,0.009,0.046c0.046,0.317,0.14,0.63,0.276,0.921c0.043,0.116,0.087,0.228,0.149,0.335
			c0.055,0.141,0.125,0.28,0.201,0.418c0.107,0.197,0.234,0.381,0.365,0.543c-0.481,0.54-1.578,1.118-4.291,1.118
			c-0.777,0-2.038-0.556-2.718-1.392c0.123-0.127,0.236-0.259,0.339-0.407c0.164-0.236,0.317-0.488,0.479-0.766
			c0.118-0.206,0.216-0.429,0.284-0.654c0.676-2.257-0.031-4.583-1.845-6.079c-0.125-0.101-0.258-0.19-0.4-0.278
			c-0.51-0.289-0.994-0.51-1.481-0.661c-0.19-0.057-0.39-0.096-0.589-0.122c-0.184-0.031-0.372-0.051-0.563-0.051h-0.251
			c-0.184,0-0.37,0.02-0.547,0.051c-0.168,0.021-0.324,0.044-0.486,0.09c-1.107,0.291-1.847,0.871-2.337,1.254
			c-0.214,0.166-0.407,0.367-0.569,0.584c-0.057,0.081-0.116,0.155-0.184,0.229c-0.14,0.176-0.311,0.4-0.492,0.652
			c-0.015,0.021-0.031,0.044-0.04,0.065c-0.273-0.148-0.604-0.289-0.962-0.4c-0.145-0.039-0.298-0.067-0.444-0.094
			c-0.079-0.018-0.149-0.028-0.23-0.04c-0.527-0.14-1.053-0.205-1.578-0.205c-0.81,0-1.58,0.175-2.256,0.508
			c-0.331,0.122-0.641,0.3-0.91,0.529c-1.241,1.039-1.97,2.416-2.079,3.904c-1.398-1.444-3.348-2.324-5.475-2.324
			c-0.812,0-1.604,0.131-2.331,0.388c-0.193-0.243-0.4-0.476-0.622-0.698c-1.932-1.945-4.965-3.112-8.083-3.112
			c-2.053,0-3.941,0.501-5.46,1.44c-0.232,0.146-0.447,0.323-0.63,0.525c-0.112,0.096-0.208,0.201-0.302,0.319
			c-0.274,0.337-0.506,0.691-0.689,1.076c-0.503,1.024-0.39,2.241,0.297,3.147L98.02,41.342z M136.856,37.832
			c-0.04-0.084-0.09-0.16-0.142-0.224c-0.048-0.166-0.103-0.321-0.175-0.468c-0.053-0.363-0.013-0.701,0.149-1.035
			c0.072-0.088,0.149-0.173,0.225-0.261c0.085-0.035,0.165-0.085,0.232-0.143c0.088-0.021,0.177-0.05,0.258-0.092
			c2.009,0.182,1.353,2.587,1.035,3.878c-0.626,0-1.239,0-1.855,0c0.507-0.164,0.969-0.488,1.313-0.989
			C137.48,38.409,137.11,38.173,136.856,37.832z M142.368,36.335c0.273-0.479,0.61-0.663,1.153-0.725
			c0.206,0.031,0.407,0.116,0.578,0.234c0.048,0.099,0.124,0.18,0.203,0.261c0.315,0.905-0.182,2.247-1.215,2.448
			c0.37,0.381,0.788,0.633,1.241,0.896c0.057,0.02,0.113,0.028,0.169,0.039c-0.672,0-1.342,0-2.012,0
			C142.2,38.432,142.04,37.396,142.368,36.335z M172.728,24.82c0.273-0.116,0.524-0.28,0.755-0.476
			c0.046-0.044,0.094-0.083,0.145-0.122c-0.012,0.529,0.043,1.076,0.155,1.626c-0.097-0.046-0.188-0.101-0.28-0.158
			c-0.396-0.26-0.665-0.527-0.827-0.842C172.689,24.842,172.71,24.826,172.728,24.82z M107.627,24.301
			c0.162,0.139,0.334,0.261,0.521,0.361c0.131,0.077,0.271,0.146,0.405,0.204c-0.166,0.293-0.402,0.512-0.597,0.66
			c-0.162,0.121-0.328,0.215-0.493,0.298C107.568,25.35,107.627,24.842,107.627,24.301z M85.091,18.13l0.111-0.069l0.072-0.104
			c1.068-0.67,2.442-0.989,3.863-0.989c3.576,0,7.44,2.042,7.418,5.758c0.748-1.615,2.17-2.337,3.617-2.337
			c1.899,0,3.838,1.226,4.396,3.342c0.197,1.459-0.42,2.689-1.151,3.884c-0.059,0.07-0.129,0.127-0.208,0.173l-0.077,0.107
			c1.02,0.771,2.197,1.166,3.37,1.166c1.138,0,2.273-0.374,3.276-1.129c1.742-1.324,2.464-3.396,1.652-5.416
			c-0.678-0.065-1.236-0.178-1.833-0.504c-1.265-1.15-1.274-2.783,0.074-3.914l0.145-0.037c0.317-0.211,0.696-0.289,1.077-0.289
			c0.282,0,0.569,0.041,0.827,0.109l0.107,0.076c0.087,0,0.168,0,0.256,0l0.101,0.033h0.112c0.383,0.113,0.709,0.363,1.046,0.573
			c0.083,0.009,0.168,0.035,0.25,0.074c0.057,0,0.116,0.009,0.173,0.009c0.694,0,1.383-0.348,2.053-0.473
			c0.087-0.065,0.188-0.113,0.289-0.145c0.05-0.053,0.092-0.101,0.143-0.148c0.114-0.247,0.251-0.478,0.396-0.718V17.13
			c0.19-0.277,0.414-0.522,0.608-0.792c0.398-0.305,0.761-0.587,1.26-0.72h0.142l0.107-0.031c0.083,0,0.167,0,0.251,0l0.112,0.031
			h0.14c0.302,0.099,0.586,0.245,0.86,0.396c0.877,0.721,1.188,1.806,0.869,2.874c-0.116,0.198-0.234,0.385-0.363,0.573
			c-0.319,0.288-0.691,0.481-1.111,0.571c-0.768,3.223,3.131,5.963,5.987,5.963c3.079,0,6.554-0.65,7.563-3.983
			c0.021-0.483,0.074-0.949,0.074-1.436l-0.112-0.043h-0.107c-0.339-0.158-0.672-0.368-0.867-0.714v-0.107
			c-0.044-0.072-0.099-0.145-0.145-0.212l-0.031-0.145l-0.074-0.109c-0.024-0.175-0.061-0.344-0.107-0.501c0-0.094,0-0.19,0-0.287
			l-0.033-0.104c0.033-0.132,0.046-0.261,0.033-0.396c0.068-0.212,0.151-0.418,0.248-0.614c-0.385-0.066-0.696-0.34-0.958-0.608
			c-0.827-1.239-0.67-3.493,0.818-4.237c0.641-0.317,1.261-0.473,1.856-0.473c0.941,0,1.838,0.381,2.711,1.121
			c-0.739-3.229,1.764-4.804,4.254-4.804c2.571,0,5.127,1.674,4.111,4.945c0.744-0.698,1.867-1.153,2.946-1.153
			c0.505,0,1.004,0.104,1.446,0.326l0.07,0.072c0.496,0.219,0.799,0.573,1.148,0.977c0.074,0.164,0.157,0.332,0.249,0.494
			c0.226,0.76,0.226,1.436,0,2.192c-0.244,0.525-0.647,1.031-1.182,1.294c0.16,1.374,0.009,2.685-1.438,3.194
			c-0.134,3.795,3.915,5.447,7.226,5.447c0.257,0,0.508-0.005,0.749-0.031c3.247-0.258,5.786-2.778,5.786-6.026
			c-0.328-0.12-0.657-0.201-0.968-0.361c-0.175-0.145-0.33-0.295-0.464-0.466c-0.023-0.081-0.063-0.153-0.113-0.215
			c-0.534-1.519,0.392-3.24,2.011-3.444c1.111,0.049,1.698,0.823,2.234,1.686c0.639,0.547,1.267,1.076,2.081,1.365
			c0.725-0.055,1.515-0.099,2.16-0.464l0.138-0.044c0.341-0.263,0.768-0.35,1.203-0.35c0.328,0,0.659,0.05,0.957,0.101
			c0.378,0.18,0.693,0.354,1.006,0.647c0.199,0.25,0.303,0.543,0.432,0.827c0.247,1.123-0.024,1.947-0.897,2.691l-0.148,0.035
			l-0.145,0.109l-0.141,0.035l-0.106,0.072c-0.379,0.116-0.756,0.182-1.143,0.182c-0.037,0-0.077-0.004-0.116-0.009
			c-0.661,2.315,0.042,4.388,2.123,5.747c0.901,0.595,1.88,0.879,2.843,0.879c1.188,0,2.36-0.433,3.374-1.233
			c-0.28-0.289-0.453-0.648-0.725-0.938c-0.938-1.859-1.09-4.048,0.755-5.453c0.924-0.693,1.885-1.028,2.802-1.028
			c1.514,0,2.917,0.899,3.813,2.534c-0.402-2.3,1.688-4.501,3.636-5.309c1.101-0.462,2.446-0.731,3.779-0.731
			c1.3,0,2.582,0.254,3.614,0.834c0.049,0.046,0.104,0.101,0.147,0.146c0.078,0.114,0.14,0.232,0.182,0.356l0.034,0.112
			c0,0.129,0,0.263,0,0.392l-0.034,0.072v0.072c-1.024,1.018-3.183,3.413-5.668,6.229l-3.795-1.404l-3.998,5.247l1.663,3.18
			c-3.469,4.007-6.305,7.312-6.305,7.312c-9.943,0-21.209,0-31.799,0c0.18-0.067,0.349-0.14,0.532-0.212
			c1.899-1.444,1.05-4.16-0.44-5.511c-1.085-0.982-2.337-1.762-3.385-2.806c-0.939-0.942-1.729-2.044-2.353-3.219
			c-0.873,1.398-1.833,2.525-2.996,3.683c-1.182,1.185-2.855,1.821-3.759,3.296c-0.757,1.234-1.145,3.158,0.148,4.224
			c0.298,0.254,0.639,0.438,0.994,0.545c-11.486,0.004-22.975,0.011-34.471,0.042l-4.346-5.8l0.024,0.033l2.228-4.804l-4.221-5.101
			l-4.107,1.772l-5.246-6.994C84.857,18.458,84.964,18.288,85.091,18.13z"/>
		<rect x="136.296" y="15.907" fill-rule="evenodd" clip-rule="evenodd" fill="#E6E6E8" width="8.666" height="8.61"/>
	</g>
	<g>
		<g>
			<path fill-rule="evenodd" clip-rule="evenodd" fill="#E6E6E8" d="M75.638,209.513c-4.32,0-8.383,0-12.537,0
				c0-1.611,0-3.143,0-4.771c6.585,0,13.189,0,19.853,0c0.123,1.724,0.177,3.252-1.079,4.771c-3.718,4.525-7.23,9.208-10.819,13.83
				c-0.241,0.324-0.481,0.647-0.858,1.143c4.399,0,8.629,0,12.946,0c0,1.672,0,3.199,0,4.792c-6.85,0-13.69,0-20.616,0
				c-0.123-1.685-0.228-3.199,1.046-4.727C67.626,219.697,71.504,214.69,75.638,209.513z"/>
			<path fill-rule="evenodd" clip-rule="evenodd" fill="#E6E6E8" d="M114.761,229.558c0,2.617,0,5.34,0,8.123
				c-1.705,0-3.278,0-4.95,0c0-8.434,0-16.863,0-25.406c3.884-0.539,7.819-1.178,11.763-0.666c3.941,0.513,6.499,3.813,6.753,8.316
				c0.295,5.085-2.727,9.904-9.151,9.642C117.763,229.51,116.358,229.558,114.761,229.558z M114.824,225.115
				c1.217,0.074,2.394,0.136,3.563,0.228c3.436,0.271,5.324-2.201,5.038-5.467c-0.221-2.521-1.492-4.004-3.875-4.228
				c-1.556-0.153-3.14-0.03-4.725-0.03C114.824,218.948,114.824,221.978,114.824,225.115z"/>
			<path fill-rule="evenodd" clip-rule="evenodd" fill="#E6E6E8" d="M159.741,229.558c0,2.591,0,5.296,0,8.075
				c-1.687,0-3.286,0-4.984,0c0-8.395,0-16.824,0-25.358c3.855-0.534,7.744-1.139,11.661-0.688c3.954,0.455,6.596,3.804,6.856,8.347
				c0.289,5.076-2.733,9.896-9.163,9.633C162.713,229.51,161.302,229.558,159.741,229.558z M159.764,225.124
				c1.263,0.079,2.402,0.127,3.545,0.219c3.497,0.28,5.34-2.236,5.068-5.444c-0.228-2.591-1.585-4.102-4.07-4.28
				c-1.493-0.114-3.005-0.022-4.543-0.022C159.764,218.939,159.764,221.955,159.764,225.124z"/>
			<path fill-rule="evenodd" clip-rule="evenodd" fill="#E6E6E8" d="M104.664,229.282c-1.672,0-3.291,0-4.961,0
				c-0.026-0.329-0.065-0.644-0.065-0.727c-1.556,0.433-3.079,1.106-4.644,1.238c-4.534,0.363-8.095-2.573-8.67-7.095
				c-0.186-1.519-0.199-3.138,0.101-4.631c0.915-4.499,4.104-6.818,8.997-6.621c3.063,0.131,6.116,0.433,9.243,0.665
				C104.664,217.929,104.664,223.574,104.664,229.282z M99.65,215.802c-1.228-0.074-2.333-0.201-3.436-0.215
				c-3.486-0.065-5.05,1.436-5.173,4.897c-0.088,2.552,1.247,4.666,3.265,5.056c1.81,0.354,3.445-0.127,4.889-1.239
				c0.223-0.17,0.439-0.529,0.442-0.805C99.668,220.979,99.65,218.467,99.65,215.802z"/>
			<path fill-rule="evenodd" clip-rule="evenodd" fill="#E6E6E8" d="M194.774,229.277c-1.661,0-3.275,0-4.945,0
				c-0.033-0.324-0.068-0.635-0.077-0.722c-1.545,0.429-3.067,1.106-4.63,1.238c-4.539,0.367-8.093-2.569-8.677-7.086
				c-0.195-1.515-0.206-3.134,0.094-4.626c0.908-4.504,4.097-6.788,8.987-6.644c1.55,0.039,3.107,0.14,4.655,0.275
				c1.514,0.127,3.018,0.333,4.593,0.517C194.774,217.92,194.774,223.57,194.774,229.277z M189.77,215.797
				c-1.231-0.069-2.337-0.196-3.444-0.21c-3.439-0.061-4.968,1.366-5.16,4.788c-0.142,2.583,1.213,4.762,3.266,5.165
				c1.816,0.354,3.453-0.127,4.893-1.243c0.222-0.175,0.423-0.534,0.429-0.81C189.785,220.971,189.77,218.458,189.77,215.797z"/>
			<path fill-rule="evenodd" clip-rule="evenodd" fill="#E6E6E8" d="M141.491,211.215c3.439,0.083,6.688,1.331,8.377,4.959
				c1.672,3.575,1.479,7.199-1.012,10.373c-2.392,3.063-5.772,3.768-9.477,3.295c-8.388-1.076-9.834-10.271-6.346-14.981
				C134.753,212.541,137.616,211.236,141.491,211.215z M141.128,215.728c-2.908,0-4.806,1.882-4.816,4.757
				c-0.011,3.003,1.93,5.007,4.857,5.021c2.718,0.013,4.703-2.066,4.733-4.941C145.925,217.696,143.985,215.728,141.128,215.728z"/>
			<path fill-rule="evenodd" clip-rule="evenodd" fill="#E6E6E8" d="M204.915,216.222c0,4.395,0,8.679,0,13.034
				c-1.695,0-3.302,0-4.996,0c0-5.638,0-11.283,0-17.2c3.725-0.193,7.449-0.596,11.165-0.517c4.026,0.078,6.434,2.84,6.451,6.85
				c0.014,3.483,0,6.963,0,10.446c0,0.114-0.035,0.215-0.059,0.416c-1.631,0-3.268,0-5.01,0c0-2.206,0-4.385,0-6.564
				c-0.004-1.068,0.016-2.145-0.008-3.213c-0.062-2.148-1.375-3.471-3.504-3.471C207.627,216.003,206.31,216.143,204.915,216.222z"
				/>
		</g>
	</g>
	<g>
		<path fill="#E6E6E8" d="M103.981,202.116c-1.716,0.757-3.434,1.133-5.031,1.133c-3.567,0-5.937-2.323-5.937-5.82
			c0-3.462,2.416-5.786,6.068-5.786c1.157,0,2.578,0.18,3.838,0.556l-0.232,1.063c-1.402-0.341-2.644-0.508-3.545-0.508
			c-2.941,0-4.919,1.86-4.919,4.675c0,2.813,1.88,4.709,4.727,4.709c1.19,0,2.597-0.232,3.919-0.718v-3.4h-4.444v-1.081h5.556
			V202.116z"/>
		<path fill="#E6E6E8" d="M114.336,199.196c0,2.434-1.703,4.066-4.138,4.066c-2.42,0-4.136-1.633-4.136-4.066
			c0-2.42,1.716-4.039,4.136-4.039C112.634,195.157,114.336,196.776,114.336,199.196z M113.189,199.196
			c0-1.816-1.226-3.011-2.991-3.011c-1.749,0-2.992,1.194-2.992,3.011c0,1.83,1.243,3.06,2.992,3.06
			C111.964,202.256,113.189,201.026,113.189,199.196z"/>
		<path fill="#E6E6E8" d="M117.71,195.547c0.911-0.254,1.779-0.333,2.661-0.333c2.486,0,3.904,1.598,3.904,3.965
			c0,2.504-1.534,4.04-3.757,4.04c-1.16,0-1.928,0.013-3.939-0.363v-11.458h1.131V195.547z M117.71,196.514v5.545
			c1.304,0.224,1.891,0.224,2.611,0.224c1.818,0,2.862-1.238,2.862-3.104c0-1.781-0.985-3.011-2.928-3.011
			C119.49,196.168,118.671,196.238,117.71,196.514z"/>
		<path fill="#E6E6E8" d="M126.309,192.724c0-0.473,0.361-0.814,0.818-0.814c0.459,0,0.821,0.342,0.821,0.814
			c0,0.455-0.361,0.801-0.821,0.801C126.669,193.524,126.309,193.179,126.309,192.724z M127.7,203.004h-1.127v-7.554h1.127V203.004z
			"/>
		<path fill="#E6E6E8" d="M137.524,198.785c0,0.372-0.016,0.512-0.066,0.871h-6.292c0.18,1.549,1.258,2.582,2.924,2.582
			c0.969,0,1.749-0.166,2.779-0.434l0.182,0.929c-0.985,0.284-1.832,0.516-2.992,0.516c-2.584,0-4.09-1.689-4.09-4.039
			c0-2.421,1.637-3.996,3.928-3.996C136.021,195.214,137.508,196.579,137.524,198.785z M131.132,198.772h5.359
			c-0.011-1.655-1.046-2.644-2.563-2.644C132.311,196.129,131.263,197.166,131.132,198.772z"/>
		<path fill="#E6E6E8" d="M143.985,196.369c-1.092,0-1.976,0.026-3.092,0.162v6.473h-1.125v-7.339
			c1.372-0.241,2.794-0.39,4.216-0.39V196.369z"/>
		<path fill="#E6E6E8" d="M153.321,198.295v4.709h-1.127v-4.451c0-1.448-0.816-2.314-2.16-2.314c-0.85,0-1.797,0.048-2.81,0.223
			v6.543h-1.13v-7.388c1.13-0.245,2.795-0.402,4.139-0.402C152.146,195.214,153.321,196.369,153.321,198.295z"/>
		<path fill="#E6E6E8" d="M163.689,199.196c0,2.434-1.705,4.066-4.139,4.066c-2.418,0-4.136-1.633-4.136-4.066
			c0-2.42,1.718-4.039,4.136-4.039C161.984,195.157,163.689,196.776,163.689,199.196z M162.545,199.196
			c0-1.816-1.224-3.011-2.994-3.011c-1.748,0-2.989,1.194-2.989,3.011c0,1.83,1.241,3.06,2.989,3.06
			C161.321,202.256,162.545,201.026,162.545,199.196z"/>
		<path fill="#E6E6E8" d="M177.393,202.855c-2.011,0.376-2.777,0.363-3.938,0.363c-2.224,0-3.76-1.536-3.76-4.04
			c0-2.367,1.427-3.965,3.908-3.965c0.884,0,1.748,0.079,2.661,0.333v-4.149h1.129V202.855z M170.788,199.179
			c0,1.865,1.046,3.104,2.86,3.104c0.72,0,1.309,0,2.615-0.224v-5.545c-0.961-0.275-1.777-0.346-2.548-0.346
			C171.769,196.168,170.788,197.397,170.788,199.179z"/>
		<path fill="#E6E6E8" d="M187.192,198.785c0,0.372-0.022,0.512-0.068,0.871h-6.296c0.184,1.549,1.261,2.582,2.928,2.582
			c0.966,0,1.751-0.166,2.779-0.434l0.182,0.929c-0.986,0.284-1.834,0.516-2.993,0.516c-2.58,0-4.09-1.689-4.09-4.039
			c0-2.421,1.637-3.996,3.926-3.996C185.682,195.214,187.17,196.579,187.192,198.785z M180.796,198.772h5.363
			c-0.018-1.655-1.046-2.644-2.567-2.644C181.975,196.129,180.925,197.166,180.796,198.772z"/>
	</g>
</g>
</svg>
